:SAMPLES-PER-SECOND 30
:FULLY-SPECIFIED
:DEGREES
157
root  -40.4012 41.4551 41.0329 0.247191 -1.97683 -0.723538
RightUpLeg  -1.15963 -6.8037 -4.46623
RightLeg  2.97061 0.264467 2.59249
RightFoot  0.333241 0.105981 -0.986268
RightToes  -1.74624e-010 0 -3.6325e-017
Spine  -1.65327 -0.525195 2.77344
Spine1  3.59608 -0.574071 -0.31399
HEad  -10.2511 7.19295 1.10514
LeftShoulder1  0.286438 1.32047 -5.08342
LeftArm  -14.1355 9.70771 1.29638
LeftForeArm  8.88699 -2.67304 -2.94612
LeftHand  -0.244104 0.0205437 5.32207
RightShoulder  0.0969284 -2.57038 2.22871
RightArm  -13.0598 -1.08404 -2.6253
RightForeArm  -9.55365 1.97678 6.14872
RightHand  -1.24241 4.53283 -14.7406
LeftUpLeg  1.57489 3.95101 1.66097
LeftLeg  1.78353 5.02183 -3.70032
LeftFoot  -3.11094 -0.182801 2.84693
LeftToes  1.71891e-010 -1.5102e-010 2.10556e-011
158
root  -40.4441 41.4561 41.141 0.454206 -2.23534 -0.740633
RightUpLeg  -1.29474 -6.795 -4.37925
RightLeg  3.08869 0.449656 2.64718
RightFoot  0.204116 0.119177 -1.20332
RightToes  -1.74624e-010 0 -3.6325e-017
Spine  -1.49949 -0.427394 2.62249
Spine1  3.29838 -0.536486 0.0206652
HEad  -9.8403 7.56454 1.15873
LeftShoulder1  0.32052 1.17979 -5.84693
LeftArm  -13.9127 9.87238 1.95991
LeftForeArm  8.24345 -2.22749 -2.94921
LeftHand  -0.244104 0.0205437 5.32207
RightShoulder  0.101537 -2.49192 1.83007
RightArm  -13.5206 -0.971101 -2.47224
RightForeArm  -8.71762 1.80476 5.94462
RightHand  -1.28845 4.76231 -14.9405
LeftUpLeg  1.57649 3.95079 1.7096
LeftLeg  1.72699 5.29778 -3.65879
LeftFoot  -3.19715 -0.183525 2.86558
LeftToes  1.71891e-010 -1.5102e-010 2.10556e-011
159
root  -40.4892 41.4592 41.2372 0.601799 -2.49219 -0.813621
RightUpLeg  -1.30166 -6.68578 -4.21774
RightLeg  3.02744 0.560078 2.63716
RightFoot  0.121272 0.117894 -1.19803
RightToes  -1.74624e-010 0 -3.6325e-017
Spine  -1.39148 -0.357379 2.53584
Spine1  3.20463 -0.520948 0.301531
HEad  -9.45737 7.50674 1.16738
LeftShoulder1  0.32462 1.26116 -6.59897
LeftArm  -14.0642 9.98757 2.66235
LeftForeArm  7.79158 -2.3747 -2.87741
LeftHand  -0.244104 0.0205437 5.32207
RightShoulder  0.0865456 -2.59533 1.22431
RightArm  -14.3633 -0.499192 -2.16753
RightForeArm  -7.81157 1.38773 5.64346
RightHand  -1.34598 5.08246 -15.1314
LeftUpLeg  1.60668 4.01799 1.84392
LeftLeg  1.71938 5.46396 -3.63672
LeftFoot  -3.29805 -0.179004 2.82545
LeftToes  1.71891e-010 -1.5102e-010 2.10556e-011
160
root  -40.5335 41.4585 41.3199 0.650455 -2.7205 -0.880467
RightUpLeg  -1.23724 -6.52623 -4.03899
RightLeg  2.98286 0.639442 2.56169
RightFoot  0.0490621 0.112256 -1.12644
RightToes  -1.74624e-010 0 -3.6325e-017
Spine  -1.27555 -0.29977 2.56493
Spine1  3.25066 -0.474767 0.363036
HEad  -9.31794 7.36296 1.31299
LeftShoulder1  0.301475 1.48282 -7.04162
LeftArm  -14.2396 9.9633 3.10411
LeftForeArm  7.69923 -2.86135 -2.86171
LeftHand  -0.244104 0.0205437 5.32207
RightShoulder  0.0518586 -2.92697 0.64882
RightArm  -14.9488 0.0946873 -1.7775
RightForeArm  -7.97274 1.25178 5.5336
RightHand  -1.38519 5.16588 -15.4413
LeftUpLeg  1.68599 4.07434 1.96773
LeftLeg  1.78297 5.58201 -3.58991
LeftFoot  -3.43379 -0.166693 2.71162
LeftToes  1.71891e-010 -1.5102e-010 2.10556e-011
161
root  -40.5756 41.4531 41.3941 0.647233 -2.90493 -0.874975
RightUpLeg  -1.20422 -6.47111 -3.96134
RightLeg  3.12338 0.762519 2.52742
RightFoot  -0.119686 0.118122 -1.23377
RightToes  -1.74624e-010 0 -3.6325e-017
Spine  -1.03161 -0.221487 2.70753
Spine1  2.98863 -0.333059 0.0890863
HEad  -8.87256 6.44035 1.17942
LeftShoulder1  0.315307 1.3869 -7.04107
LeftArm  -14.2793 10.0119 3.3698
LeftForeArm  7.92452 -3.29568 -2.87853
LeftHand  -0.244104 0.0205437 5.32207
RightShoulder  0.0429869 -3.02154 0.526133
RightArm  -14.939 0.187845 -1.77369
RightForeArm  -8.99844 1.74138 5.6609
RightHand  -1.43056 5.15066 -15.9524
LeftUpLeg  1.79989 4.03555 1.97849
LeftLeg  1.84175 5.77865 -3.48945
LeftFoot  -3.57829 -0.154826 2.59784
LeftToes  1.71891e-010 -1.5102e-010 2.10556e-011
162
root  -40.6232 41.4494 41.4629 0.670074 -2.97354 -0.837517
RightUpLeg  -1.18134 -6.56176 -3.98287
RightLeg  3.28008 0.892465 2.61972
RightFoot  -0.350954 0.130378 -1.43925
RightToes  -1.74624e-010 0 -3.6325e-017
Spine  -0.812839 -0.220455 2.85726
Spine1  2.65303 -0.213712 -0.458415
HEad  -8.00419 5.09234 0.623642
LeftShoulder1  0.323735 1.25945 -6.53521
LeftArm  -14.3942 10.0747 3.31794
LeftForeArm  8.40234 -3.56299 -2.84466
LeftHand  -0.244104 0.0205437 5.32207
RightShoulder  0.0696643 -2.76972 1.18721
RightArm  -15.1993 0.0963877 -2.27815
RightForeArm  -9.07629 2.35124 5.63971
RightHand  -1.50686 5.42259 -16.3712
LeftUpLeg  1.91029 3.98227 1.96569
LeftLeg  1.80903 5.90987 -3.40807
LeftFoot  -3.66991 -0.148978 2.54415
LeftToes  1.71891e-010 -1.5102e-010 2.10556e-011
163
root  -40.6812 41.4504 41.5192 0.679539 -2.92956 -0.836346
RightUpLeg  -1.07616 -6.64245 -3.97498
RightLeg  3.28924 0.925624 2.73866
RightFoot  -0.519447 0.135006 -1.52372
RightToes  -1.74624e-010 0 -3.6325e-017
Spine  -0.635007 -0.262545 2.78032
Spine1  2.45807 -0.208545 -0.657826
HEad  -7.91808 5.74089 2.26992
LeftShoulder1  0.333867 1.15711 -6.32577
LeftArm  -14.4613 10.0258 3.34905
LeftForeArm  8.86984 -3.72128 -2.82883
LeftHand  -0.244104 0.0205437 5.32207
RightShoulder  0.0955957 -2.52526 1.54015
RightArm  -15.4517 0.139773 -2.44069
RightForeArm  -8.40763 2.55014 5.55369
RightHand  -1.6159 5.99856 -16.6707
LeftUpLeg  2.04043 4.01591 2.04996
LeftLeg  1.71824 5.82916 -3.39431
LeftFoot  -3.7058 -0.14496 2.5084
LeftToes  1.71891e-010 -1.5102e-010 2.10556e-011
164
root  -40.7399 41.4512 41.5575 0.601231 -2.90449 -0.869418
RightUpLeg  -0.896286 -6.57619 -3.86898
RightLeg  3.24836 0.849817 2.73723
RightFoot  -0.621741 0.131 -1.47017
RightToes  -1.74624e-010 0 -3.6325e-017
Spine  -0.344645 -0.257764 2.50349
Spine1  2.32746 -0.25032 -0.370724
HEad  -7.60318 6.25085 2.36386
LeftShoulder1  0.353901 1.06283 -6.63949
LeftArm  -14.3326 9.84284 3.52791
LeftForeArm  9.11306 -3.78275 -2.89999
LeftHand  -0.244104 0.0205437 5.32207
RightShoulder  0.0957409 -2.48669 1.12278
RightArm  -15.844 0.284548 -1.89318
RightForeArm  -7.09181 2.46979 5.36798
RightHand  -1.63808 6.22967 -16.5669
LeftUpLeg  2.21398 4.07966 2.18171
LeftLeg  1.68675 5.70341 -3.3707
LeftFoot  -3.76105 -0.136896 2.40765
LeftToes  1.71891e-010 -1.5102e-010 2.10556e-011
165
root  -40.7868 41.4475 41.5871 0.517614 -2.97299 -0.90093
RightUpLeg  -0.780314 -6.42776 -3.72752
RightLeg  3.28402 0.762784 2.64818
RightFoot  -0.739889 0.12771 -1.42235
RightToes  -1.74624e-010 0 -3.6325e-017
Spine  -0.0192246 -0.228139 2.34747
Spine1  2.21272 -0.237466 -0.244425
HEad  -7.6412 6.55528 2.51301
LeftShoulder1  0.356127 1.0582 -6.70898
LeftArm  -14.1526 9.64852 3.40636
LeftForeArm  9.21895 -3.65314 -2.98457
LeftHand  -0.244104 0.0205437 5.32207
RightShoulder  0.0989914 -2.44305 1.0175
RightArm  -16.8885 0.506743 -1.43964
RightForeArm  -4.92063 2.35658 4.93085
RightHand  -1.53733 5.9421 -15.96
LeftUpLeg  2.33638 4.07577 2.25712
LeftLeg  1.75724 5.73788 -3.27301
LeftFoot  -3.88207 -0.122696 2.23101
LeftToes  1.71891e-010 -1.5102e-010 2.10556e-011
166
root  -40.8253 41.4428 41.6202 0.582981 -3.04269 -0.926025
RightUpLeg  -0.825827 -6.32469 -3.61204
RightLeg  3.33661 0.708933 2.6018
RightFoot  -0.859878 0.130421 -1.4645
RightToes  -1.74624e-010 0 -3.6325e-017
Spine  0.0273948 -0.234709 2.40014
Spine1  2.27705 -0.189343 -0.518827
HEad  -7.74181 6.32015 2.40164
LeftShoulder1  0.343582 1.08691 -6.32377
LeftArm  -14.076 9.52995 2.9888
LeftForeArm  9.32564 -3.33627 -3.00358
LeftHand  -0.244104 0.0205437 5.32207
RightShoulder  0.122297 -2.27274 1.71855
RightArm  -17.5143 0.838634 -1.66868
RightForeArm  -3.55904 2.24108 4.67788
RightHand  -1.48623 5.83667 -15.5858
LeftUpLeg  2.29329 4.04883 2.30387
LeftLeg  1.84668 5.82207 -3.18116
LeftFoot  -4.01798 -0.107302 2.04224
LeftToes  1.71891e-010 -1.5102e-010 2.10556e-011
167
root  -40.8665 41.4417 41.6544 0.777289 -3.01392 -0.957204
RightUpLeg  -0.952843 -6.27206 -3.5046
RightLeg  3.30198 0.622958 2.61887
RightFoot  -0.908145 0.137236 -1.57046
RightToes  -1.74624e-010 0 -3.6325e-017
Spine  -0.277332 -0.263121 2.33925
Spine1  2.68567 -0.217983 -0.541451
HEad  -7.62203 5.83298 1.32238
LeftShoulder1  0.340171 1.11064 -6.32016
LeftArm  -14.0938 9.36069 2.79795
LeftForeArm  9.32978 -3.0579 -2.99542
LeftHand  -0.244104 0.0205437 5.32207
RightShoulder  0.128941 -2.25536 2.16079
RightArm  -17.3856 1.00936 -1.80247
RightForeArm  -3.85577 2.6088 4.80017
RightHand  -1.50936 5.88013 -15.7618
LeftUpLeg  2.13157 4.10309 2.40897
LeftLeg  1.88281 5.73743 -3.19348
LeftFoot  -4.10455 -0.0959397 1.9026
LeftToes  1.71891e-010 -1.5102e-010 2.10556e-011
